<svg width="2169" height="778" viewBox="0 0 2169 778" fill="none" xmlns="http://www.w3.org/2000/svg">
<mask id="mask0_3_1450" style="mask-type:alpha" maskUnits="userSpaceOnUse" x="0" y="0" width="2169" height="778">
<rect x="-0.793548" y="0.793548" width="2167.41" height="776.413" transform="matrix(-1 0 0 1 2167.41 0)" fill="white" stroke="black" stroke-width="1.5871"/>
</mask>
<g mask="url(#mask0_3_1450)">
<g opacity="0.2">
<path d="M2851.51 28.9395L1325.99 28.9396" stroke="#231F20" stroke-opacity="0.49" stroke-width="0.75" stroke-miterlimit="10"/>
<path d="M2851.51 64.9363L1325.99 64.9364" stroke="#231F20" stroke-opacity="0.49" stroke-width="0.75" stroke-miterlimit="10"/>
<path d="M2851.51 99.6476L1325.99 99.6477" stroke="#231F20" stroke-opacity="0.49" stroke-width="0.75" stroke-miterlimit="10"/>
<path d="M2851.51 135.645L1325.99 135.645" stroke="#231F20" stroke-opacity="0.49" stroke-width="0.75" stroke-miterlimit="10"/>
<path d="M2851.51 171.642L1325.99 171.642" stroke="#231F20" stroke-opacity="0.49" stroke-width="0.75" stroke-miterlimit="10"/>
<path d="M2851.51 206.353L1325.99 206.353" stroke="#231F20" stroke-opacity="0.49" stroke-width="0.75" stroke-miterlimit="10"/>
<path d="M2851.51 242.35L1325.99 242.35" stroke="#231F20" stroke-opacity="0.49" stroke-width="0.75" stroke-miterlimit="10"/>
<path d="M2851.51 278.346L1325.99 278.347" stroke="#231F20" stroke-opacity="0.49" stroke-width="0.75" stroke-miterlimit="10"/>
<path d="M2851.51 313.058L1325.99 313.058" stroke="#231F20" stroke-opacity="0.49" stroke-width="0.75" stroke-miterlimit="10"/>
<path d="M2851.51 349.055L1325.99 349.055" stroke="#231F20" stroke-opacity="0.49" stroke-width="0.75" stroke-miterlimit="10"/>
<path d="M2851.51 385.052L1325.99 385.052" stroke="#231F20" stroke-opacity="0.49" stroke-width="0.75" stroke-miterlimit="10"/>
<path d="M2851.51 421.049L1325.99 421.049" stroke="#231F20" stroke-opacity="0.49" stroke-width="0.75" stroke-miterlimit="10"/>
<path d="M2851.51 455.76L1325.99 455.76" stroke="#231F20" stroke-opacity="0.49" stroke-width="0.75" stroke-miterlimit="10"/>
<path d="M2851.51 491.757L1325.99 491.757" stroke="#231F20" stroke-opacity="0.49" stroke-width="0.75" stroke-miterlimit="10"/>
<path d="M2851.51 527.754L1325.99 527.754" stroke="#231F20" stroke-opacity="0.49" stroke-width="0.75" stroke-miterlimit="10"/>
<path d="M2851.51 562.465L1325.99 562.465" stroke="#231F20" stroke-opacity="0.49" stroke-width="0.75" stroke-miterlimit="10"/>
<path d="M2851.51 598.462L1325.99 598.462" stroke="#231F20" stroke-opacity="0.49" stroke-width="0.75" stroke-miterlimit="10"/>
<path d="M2851.51 634.459L1325.99 634.459" stroke="#231F20" stroke-opacity="0.49" stroke-width="0.75" stroke-miterlimit="10"/>
<path d="M2851.51 669.171L1325.99 669.171" stroke="#231F20" stroke-opacity="0.49" stroke-width="0.75" stroke-miterlimit="10"/>
<path d="M2851.51 705.167L1325.99 705.167" stroke="#231F20" stroke-opacity="0.49" stroke-width="0.75" stroke-miterlimit="10"/>
<path d="M2851.51 741.164L1325.99 741.164" stroke="#231F20" stroke-opacity="0.49" stroke-width="0.75" stroke-miterlimit="10"/>
<path d="M2851.51 775.876L1325.99 775.876" stroke="#231F20" stroke-opacity="0.49" stroke-width="0.75" stroke-miterlimit="10"/>
<path d="M2169 2129.62L2169 -291.176" stroke="#231F20" stroke-opacity="0.49" stroke-width="0.75" stroke-miterlimit="10"/>
<path d="M2128.51 2129.62L2128.51 -291.176" stroke="#231F20" stroke-opacity="0.49" stroke-width="0.75" stroke-miterlimit="10"/>
<path d="M2089.47 2129.62L2089.47 -291.176" stroke="#231F20" stroke-opacity="0.49" stroke-width="0.75" stroke-miterlimit="10"/>
<path d="M2048.98 2129.62L2048.98 -291.176" stroke="#231F20" stroke-opacity="0.49" stroke-width="0.75" stroke-miterlimit="10"/>
<path d="M2008.49 2129.62L2008.49 -291.176" stroke="#231F20" stroke-opacity="0.49" stroke-width="0.75" stroke-miterlimit="10"/>
<path d="M1968.01 2129.62L1968.01 -291.176" stroke="#231F20" stroke-opacity="0.49" stroke-width="0.75" stroke-miterlimit="10"/>
<path d="M1927.52 2129.62L1927.52 -291.176" stroke="#231F20" stroke-opacity="0.49" stroke-width="0.75" stroke-miterlimit="10"/>
<path d="M1888.48 2129.62L1888.48 -291.176" stroke="#231F20" stroke-opacity="0.49" stroke-width="0.75" stroke-miterlimit="10"/>
<path d="M1847.99 2129.62L1847.99 -291.176" stroke="#231F20" stroke-opacity="0.49" stroke-width="0.75" stroke-miterlimit="10"/>
<path d="M1807.5 2129.62L1807.5 -291.176" stroke="#231F20" stroke-opacity="0.49" stroke-width="0.75" stroke-miterlimit="10"/>
<path d="M1767.01 2129.62L1767.01 -291.176" stroke="#231F20" stroke-opacity="0.49" stroke-width="0.75" stroke-miterlimit="10"/>
<path d="M1727.97 2129.62L1727.97 -291.176" stroke="#231F20" stroke-opacity="0.49" stroke-width="0.75" stroke-miterlimit="10"/>
<path d="M1687.48 2129.62L1687.48 -291.176" stroke="#231F20" stroke-opacity="0.49" stroke-width="0.75" stroke-miterlimit="10"/>
<path d="M1646.99 2129.62L1646.99 -291.176" stroke="#231F20" stroke-opacity="0.49" stroke-width="0.75" stroke-miterlimit="10"/>
<path d="M1606.51 2129.62L1606.51 -291.176" stroke="#231F20" stroke-opacity="0.49" stroke-width="0.75" stroke-miterlimit="10"/>
<path d="M1567.46 2129.62L1567.46 -291.176" stroke="#231F20" stroke-opacity="0.49" stroke-width="0.75" stroke-miterlimit="10"/>
<path d="M1526.98 2129.62L1526.98 -291.176" stroke="#231F20" stroke-opacity="0.49" stroke-width="0.75" stroke-miterlimit="10"/>
<path d="M1486.49 2129.62L1486.49 -291.176" stroke="#231F20" stroke-opacity="0.49" stroke-width="0.75" stroke-miterlimit="10"/>
<path d="M1446 2129.62L1446 -291.176" stroke="#231F20" stroke-opacity="0.49" stroke-width="0.75" stroke-miterlimit="10"/>
<path d="M1405.51 2129.62L1405.51 -291.176" stroke="#231F20" stroke-opacity="0.49" stroke-width="0.75" stroke-miterlimit="10"/>
<path d="M1366.47 2129.62L1366.47 -291.176" stroke="#231F20" stroke-opacity="0.49" stroke-width="0.75" stroke-miterlimit="10"/>
<path d="M1325.98 2129.62L1325.98 -291.176" stroke="#231F20" stroke-opacity="0.49" stroke-width="0.75" stroke-miterlimit="10"/>
<path d="M1325.98 28.9395L-199.545 28.9396" stroke="#231F20" stroke-opacity="0.49" stroke-width="0.75" stroke-miterlimit="10"/>
<path d="M1325.98 64.9363L-199.545 64.9364" stroke="#231F20" stroke-opacity="0.49" stroke-width="0.75" stroke-miterlimit="10"/>
<path d="M1325.98 99.6476L-199.545 99.6477" stroke="#231F20" stroke-opacity="0.49" stroke-width="0.75" stroke-miterlimit="10"/>
<path d="M1325.98 135.645L-199.545 135.645" stroke="#231F20" stroke-opacity="0.49" stroke-width="0.75" stroke-miterlimit="10"/>
<path d="M1325.98 171.642L-199.545 171.642" stroke="#231F20" stroke-opacity="0.49" stroke-width="0.75" stroke-miterlimit="10"/>
<path d="M1325.98 206.353L-199.545 206.353" stroke="#231F20" stroke-opacity="0.49" stroke-width="0.75" stroke-miterlimit="10"/>
<path d="M1325.98 242.35L-199.545 242.35" stroke="#231F20" stroke-opacity="0.49" stroke-width="0.75" stroke-miterlimit="10"/>
<path d="M1325.98 278.346L-199.545 278.347" stroke="#231F20" stroke-opacity="0.49" stroke-width="0.75" stroke-miterlimit="10"/>
<path d="M1325.98 313.058L-199.545 313.058" stroke="#231F20" stroke-opacity="0.49" stroke-width="0.75" stroke-miterlimit="10"/>
<path d="M1325.98 349.055L-199.545 349.055" stroke="#231F20" stroke-opacity="0.49" stroke-width="0.75" stroke-miterlimit="10"/>
<path d="M1325.98 385.052L-199.545 385.052" stroke="#231F20" stroke-opacity="0.49" stroke-width="0.75" stroke-miterlimit="10"/>
<path d="M1325.98 421.049L-199.545 421.049" stroke="#231F20" stroke-opacity="0.49" stroke-width="0.75" stroke-miterlimit="10"/>
<path d="M1325.98 455.76L-199.545 455.76" stroke="#231F20" stroke-opacity="0.49" stroke-width="0.75" stroke-miterlimit="10"/>
<path d="M1325.98 491.757L-199.545 491.757" stroke="#231F20" stroke-opacity="0.49" stroke-width="0.75" stroke-miterlimit="10"/>
<path d="M1325.98 527.754L-199.545 527.754" stroke="#231F20" stroke-opacity="0.49" stroke-width="0.75" stroke-miterlimit="10"/>
<path d="M1325.98 562.465L-199.545 562.465" stroke="#231F20" stroke-opacity="0.49" stroke-width="0.75" stroke-miterlimit="10"/>
<path d="M1325.98 598.462L-199.545 598.462" stroke="#231F20" stroke-opacity="0.49" stroke-width="0.75" stroke-miterlimit="10"/>
<path d="M1325.98 634.459L-199.545 634.459" stroke="#231F20" stroke-opacity="0.49" stroke-width="0.75" stroke-miterlimit="10"/>
<path d="M1325.98 669.171L-199.545 669.171" stroke="#231F20" stroke-opacity="0.49" stroke-width="0.75" stroke-miterlimit="10"/>
<path d="M1325.98 705.167L-199.545 705.167" stroke="#231F20" stroke-opacity="0.49" stroke-width="0.75" stroke-miterlimit="10"/>
<path d="M1325.98 741.164L-199.545 741.164" stroke="#231F20" stroke-opacity="0.49" stroke-width="0.75" stroke-miterlimit="10"/>
<path d="M1325.98 775.876L-199.545 775.876" stroke="#231F20" stroke-opacity="0.49" stroke-width="0.75" stroke-miterlimit="10"/>
<path d="M1285.49 2129.62L1285.49 -291.176" stroke="#231F20" stroke-opacity="0.49" stroke-width="0.75" stroke-miterlimit="10"/>
<path d="M1246.45 2129.62L1246.45 -291.176" stroke="#231F20" stroke-opacity="0.49" stroke-width="0.75" stroke-miterlimit="10"/>
<path d="M1205.96 2129.62L1205.96 -291.176" stroke="#231F20" stroke-opacity="0.49" stroke-width="0.75" stroke-miterlimit="10"/>
<path d="M1165.48 2129.62L1165.48 -291.176" stroke="#231F20" stroke-opacity="0.49" stroke-width="0.75" stroke-miterlimit="10"/>
<path d="M1124.99 2129.62L1124.99 -291.176" stroke="#231F20" stroke-opacity="0.49" stroke-width="0.75" stroke-miterlimit="10"/>
<path d="M1084.5 2129.62L1084.5 -291.176" stroke="#231F20" stroke-opacity="0.49" stroke-width="0.75" stroke-miterlimit="10"/>
<path d="M1045.46 2129.62L1045.46 -291.176" stroke="#231F20" stroke-opacity="0.49" stroke-width="0.75" stroke-miterlimit="10"/>
<path d="M1004.97 2129.62L1004.97 -291.176" stroke="#231F20" stroke-opacity="0.49" stroke-width="0.75" stroke-miterlimit="10"/>
<path d="M964.482 2129.62L964.482 -291.176" stroke="#231F20" stroke-opacity="0.49" stroke-width="0.75" stroke-miterlimit="10"/>
<path d="M923.994 2129.62L923.994 -291.176" stroke="#231F20" stroke-opacity="0.49" stroke-width="0.75" stroke-miterlimit="10"/>
<path d="M884.952 2129.62L884.952 -291.176" stroke="#231F20" stroke-opacity="0.49" stroke-width="0.75" stroke-miterlimit="10"/>
<path d="M844.464 2129.62L844.464 -291.176" stroke="#231F20" stroke-opacity="0.49" stroke-width="0.75" stroke-miterlimit="10"/>
<path d="M803.976 2129.62L803.976 -291.176" stroke="#231F20" stroke-opacity="0.49" stroke-width="0.75" stroke-miterlimit="10"/>
<path d="M763.488 2129.62L763.488 -291.176" stroke="#231F20" stroke-opacity="0.49" stroke-width="0.75" stroke-miterlimit="10"/>
<path d="M724.446 2129.62L724.446 -291.176" stroke="#231F20" stroke-opacity="0.49" stroke-width="0.75" stroke-miterlimit="10"/>
<path d="M683.958 2129.62L683.958 -291.176" stroke="#231F20" stroke-opacity="0.49" stroke-width="0.75" stroke-miterlimit="10"/>
<path d="M643.47 2129.62L643.47 -291.176" stroke="#231F20" stroke-opacity="0.49" stroke-width="0.75" stroke-miterlimit="10"/>
<path d="M602.982 2129.62L602.982 -291.176" stroke="#231F20" stroke-opacity="0.49" stroke-width="0.75" stroke-miterlimit="10"/>
<path d="M563.94 2129.62L563.94 -291.176" stroke="#231F20" stroke-opacity="0.49" stroke-width="0.75" stroke-miterlimit="10"/>
<path d="M523.452 2129.62L523.452 -291.176" stroke="#231F20" stroke-opacity="0.49" stroke-width="0.75" stroke-miterlimit="10"/>
<path d="M482.964 2129.62L482.964 -291.176" stroke="#231F20" stroke-opacity="0.49" stroke-width="0.75" stroke-miterlimit="10"/>
<path d="M442.476 2129.62L442.476 -291.176" stroke="#231F20" stroke-opacity="0.49" stroke-width="0.75" stroke-miterlimit="10"/>
<path d="M401.988 2129.62L401.988 -291.176" stroke="#231F20" stroke-opacity="0.49" stroke-width="0.75" stroke-miterlimit="10"/>
<path d="M362.946 2129.62L362.946 -291.176" stroke="#231F20" stroke-opacity="0.49" stroke-width="0.75" stroke-miterlimit="10"/>
<path d="M322.458 2131.82L322.458 -288.974" stroke="#231F20" stroke-opacity="0.49" stroke-width="0.75" stroke-miterlimit="10"/>
<path d="M281.97 2129.62L281.97 -291.176" stroke="#231F20" stroke-opacity="0.49" stroke-width="0.75" stroke-miterlimit="10"/>
<path d="M241.482 2129.62L241.482 -291.176" stroke="#231F20" stroke-opacity="0.49" stroke-width="0.75" stroke-miterlimit="10"/>
<path d="M202.44 2129.62L202.44 -291.176" stroke="#231F20" stroke-opacity="0.49" stroke-width="0.75" stroke-miterlimit="10"/>
<path d="M161.952 2129.62L161.952 -291.176" stroke="#231F20" stroke-opacity="0.49" stroke-width="0.75" stroke-miterlimit="10"/>
<path d="M121.464 2129.62L121.464 -291.176" stroke="#231F20" stroke-opacity="0.49" stroke-width="0.75" stroke-miterlimit="10"/>
<path d="M80.9762 2129.62L80.9761 -291.176" stroke="#231F20" stroke-opacity="0.49" stroke-width="0.75" stroke-miterlimit="10"/>
<path d="M41.9342 2129.62L41.9341 -291.176" stroke="#231F20" stroke-opacity="0.49" stroke-width="0.75" stroke-miterlimit="10"/>
<path d="M1.44616 2129.62L1.44604 -291.176" stroke="#231F20" stroke-opacity="0.49" stroke-width="0.75" stroke-miterlimit="10"/>
</g>
</g>
</svg>
