<svg width="20" height="21" viewBox="0 0 20 21" fill="none" xmlns="http://www.w3.org/2000/svg">
<path fill-rule="evenodd" clip-rule="evenodd" d="M2.29175 10.0834C2.29175 14.1104 5.55634 17.375 9.58342 17.375C13.6105 17.375 16.8751 14.1104 16.8751 10.0834C16.8751 6.05628 13.6105 2.79169 9.58342 2.79169C5.55634 2.79169 2.29175 6.05628 2.29175 10.0834ZM9.58342 18.625C4.86598 18.625 1.04175 14.8008 1.04175 10.0834C1.04175 5.36592 4.86598 1.54169 9.58342 1.54169C14.3008 1.54169 18.1251 5.36592 18.1251 10.0834C18.1251 12.2171 17.3427 14.1681 16.0491 15.6652L18.7754 18.3914C19.0194 18.6355 19.0194 19.0312 18.7754 19.2753C18.5313 19.5194 18.1356 19.5194 17.8915 19.2753L15.1653 16.5491C13.6682 17.8426 11.7172 18.625 9.58342 18.625Z" fill="black" fill-opacity="0.5"/>
</svg>
