<svg width="279" height="172" viewBox="0 0 279 172" fill="none" xmlns="http://www.w3.org/2000/svg">
<path d="M188.584 129.043C189.381 123.471 188.591 118.191 186.903 113.333C179.808 92.8932 156.804 68.0037 107.854 42.6593C89.9038 33.3649 70.5681 24.7817 51.1122 20.4514C31.0838 15.9924 13.3249 24.7785 12.0265 54.6338C11.8235 59.3005 12.634 64.4713 14.3145 69.3524C20.8458 88.3102 33.1596 93.3853 52.1795 92.3283C75.7801 91.0158 147.726 100.236 178.485 130.775C185.07 137.316 187.051 139.783 188.584 129.043Z" fill="url(#paint0_linear_3_1413)"/>
<path d="M41.4322 71.8166C39.7208 74.0153 36.2137 77.2789 33.403 76.9577C33.3416 76.941 31.3303 76.543 30.7128 76.3758C30.7128 76.3758 30.2167 76.2412 30.0925 76.207C25.142 74.8651 25.083 67.751 25.2603 62.9186C25.7409 52.0316 27.6621 39.6102 30.8382 28.0486L30.8544 27.98C30.8995 27.7703 31.1288 27.6108 31.3292 27.5924C32.845 27.8542 37.9931 28.881 39.4793 29.2855C39.5393 29.3015 40.0968 29.4528 40.2824 29.5037C40.4059 29.5356 40.9641 29.6893 41.1498 29.7402C40.0102 35.7154 33.0089 59.1059 36.1439 60.9913L36.2371 61.1635C38.135 62.7151 41.1283 59.0897 42.8492 50.3876C43.0128 49.619 44.0464 45.9815 44.2113 45.2097L44.4251 45.1211L52.4399 47.4434C52.6276 47.4935 52.7519 47.8228 52.6595 47.948C51.5023 53.696 48.9348 63.945 51.8176 67.3142C51.8176 67.3142 51.8776 67.3301 51.9404 67.3476C55.0623 67.7508 59.1475 48.5255 61.8568 38.2429C62.3334 36.2998 63.288 35.8203 64.923 35.8206C66.0831 35.9134 69.3338 37.2383 70.3867 37.5257C70.6944 37.6078 70.928 37.7456 71.1764 37.8141C71.9979 38.2579 72.7779 39.2104 72.5256 40.3992C66.4324 69.0634 59.2207 78.0519 53.6897 80.9861C51.9984 81.8589 50.1609 81.8778 48.5546 81.4414C46.7579 80.9533 45.2985 80.1135 44.066 78.5209C42.6788 76.7394 42.3339 74.3564 41.7765 72.0589C41.7433 71.9026 41.6819 71.8859 41.5591 71.8524L41.4363 71.819L41.4322 71.8166Z" fill="white"/>
<path d="M71.8715 53.2195C72.0361 52.3894 72.2525 51.5745 72.4022 50.802C72.8536 47.8494 73.4474 44.5666 74.1904 41.7764C74.2675 41.4855 74.5163 40.5568 74.8738 40.6782L84.287 43.8781L80.0175 59.9152L80.0899 60.0681C80.1424 60.0857 81.0652 60.3996 81.4269 60.5234C81.8893 60.68 83.2787 61.1528 83.3809 61.1864C83.6894 61.2903 84.439 61.4185 84.439 61.4185L84.573 61.3398C84.6189 61.1636 85.2213 58.8966 85.4397 58.0848C86.3213 54.7721 87.0811 51.4828 87.9811 48.1124C88.1366 47.5314 88.4908 46.1956 88.5091 46.1378L88.962 45.9107C88.962 45.9107 89.9046 46.1677 90.3152 46.309C92.4232 47.0248 94.7219 47.87 96.7994 48.7027C97.1462 48.8842 97.8661 49.1279 97.6816 49.8266L96.2972 54.8038L96.0439 55.5419L89.3592 83.18L89.3443 83.2377L89.3274 83.2962C89.1512 83.7435 88.6623 85.1596 88.5957 85.202C87.5086 87.8084 84.2836 86.6492 82.3296 85.9862C82.1756 85.9335 82.021 85.8823 81.9203 85.8456C81.6614 85.7578 80.7869 85.463 80.5812 85.3911C80.5302 85.3743 80.4933 85.2975 80.4422 85.2807C80.4081 85.2695 80.3736 85.2581 80.3387 85.2464C79.8052 84.9377 78.8886 84.373 79.1071 83.5612C79.4471 82.2815 79.9574 80.9976 80.313 79.6625C80.3596 79.4886 80.5145 78.9053 80.547 78.7914C80.9434 77.0871 82.27 70.6319 82.2182 70.6128L82.1769 70.3452C82.1769 70.3452 81.6606 70.1703 81.5081 70.1184C80.323 69.7166 79.4875 69.4939 78.2875 69.1499C78.0825 69.0804 77.9337 69.2207 77.887 69.3946C77.718 70.034 76.8894 72.9221 76.7211 73.56C76.1795 75.593 75.7259 77.7196 75.1844 79.7565C74.6591 81.7326 72.739 81.7755 71.285 81.3443C71.0276 81.2572 69.0425 80.7088 68.8212 80.6963C68.1348 80.5295 67.4739 80.4933 66.8547 80.2824C66.2894 80.0899 65.5658 79.654 65.4943 78.869C67.9091 70.4387 69.9254 61.8079 71.875 53.2195L71.8715 53.2195Z" fill="white"/>
<path d="M95.7408 70.2556C95.7869 70.1105 95.9273 69.6783 95.9401 69.6292C96.9049 67.0828 97.9709 64.5248 99.119 61.9989C99.2236 61.8223 99.5853 61.1544 99.6138 61.0577C99.7618 60.8994 101.068 59.0942 101.499 58.5076C101.513 58.4592 101.629 58.3977 101.644 58.3478C104.999 55.4207 109.141 54.2355 113.211 57.488C113.253 57.5033 113.279 57.57 113.319 57.5869C113.813 58.0095 114.332 58.4942 114.719 59.0881C115.668 60.7867 115.818 62.8651 115.901 64.8598C115.976 68.814 114.279 72.7493 113.201 76.3934C113.166 76.6497 112.698 78.2556 112.652 78.4007C112.59 78.5934 111.861 80.8557 111.598 81.6741C111.336 82.4947 110.671 84.5636 110.623 84.7079C110.391 85.4303 109.132 88.8902 108.842 89.6426C108.444 90.7327 107.197 91.3114 106.218 90.9083C105.962 90.8025 106.97 91.1058 103.94 89.5911C103.94 89.5911 103.604 89.2897 103.508 89.1409C102.906 88.4566 102.866 88.277 102.917 87.3721C103.025 87.0343 103.405 85.5558 103.455 85.2496C103.501 85.1006 103.646 84.508 103.692 84.3645C103.695 84.2033 103.568 84.152 103.526 84.1343C103.482 84.1159 103.343 84.1122 103.299 84.0953C103.17 84.0432 99.7623 82.6423 99.6189 82.6363C99.4919 82.5849 99.4716 82.7929 99.4573 82.8413C99.4431 82.8896 99.38 83.0854 99.38 83.0854C99.2207 83.7264 98.687 85.6862 98.683 85.8489C98.6511 85.9456 98.6474 86.7062 98.6332 86.7546C98.6162 86.8014 98.5531 86.9933 98.5389 87.0417C98.446 87.3334 98.372 87.4125 98.086 87.4027C97.3624 87.1046 95.5898 86.758 94.8241 86.4422C94.7405 86.4093 93.6758 85.9717 93.2905 85.8115C93.0779 85.7242 92.0146 85.2873 91.8005 85.1992C91.4648 84.8978 91.5448 84.494 91.6261 84.091C93.1578 79.4888 94.273 74.8255 95.7449 70.2541L95.7408 70.2556ZM102.175 75.7324C102.175 75.7324 103.381 76.3357 103.423 76.3534C103.506 76.3863 105.296 77.1228 105.339 77.1388C105.487 76.8218 106.15 75.0753 106.274 74.6907C106.274 74.6907 106.334 74.4988 106.35 74.4496C106.63 73.5845 106.797 72.4531 107.077 71.5863C107.498 70.1263 108.034 68.7636 108.243 67.2154C109.105 64.0819 108.724 62.7282 107.978 62.6373C107.235 62.5495 106.105 63.667 105.269 65.6661C105.062 66.0162 104.565 66.9567 104.535 67.0542C104.08 68.01 103.697 69.0541 103.356 70.112C102.799 71.8454 102.197 73.7223 101.908 75.51C101.964 75.642 102.048 75.6772 102.175 75.7286L102.175 75.7324Z" fill="white"/>
<path d="M114.741 78.7179C114.785 78.5969 114.921 78.2403 114.938 78.1989C115.854 76.1051 116.864 74.0083 117.937 71.9415C118.034 71.8015 118.364 71.2537 118.394 71.1772C118.528 71.0518 119.701 69.5993 120.089 69.1305C120.106 69.0914 120.206 69.0441 120.219 69.0051C123.172 66.7213 126.71 65.9416 129.997 68.901C130.033 68.9195 130.055 68.9762 130.09 68.9938C130.485 69.3727 130.902 69.8106 131.203 70.3334C131.932 71.8163 131.972 73.5754 131.955 75.2586C131.855 78.5966 130.254 81.8174 129.194 84.8308C129.151 85.0459 128.69 86.3747 128.646 86.4917C128.583 86.6509 127.874 88.5169 127.617 89.1904C127.362 89.8678 126.714 91.5753 126.667 91.6947C126.442 92.2917 125.233 95.1387 124.958 95.7578C124.575 96.6547 123.501 97.0735 122.693 96.6818C122.482 96.578 123.319 96.8887 120.828 95.4475C120.828 95.4475 120.558 95.1768 120.483 95.0457C120.005 94.4401 119.981 94.2845 120.061 93.5258C120.165 93.2464 120.551 92.0209 120.604 91.7652C120.65 91.6474 120.797 91.1529 120.84 91.0335C120.852 90.9003 120.746 90.8488 120.711 90.8311C120.674 90.8127 120.556 90.8033 120.521 90.7857C120.413 90.7334 117.602 89.3699 117.481 89.359C117.378 89.3075 117.352 89.4813 117.336 89.5227C117.322 89.5632 117.263 89.7224 117.263 89.7224C117.099 90.2544 116.565 91.8763 116.558 92.0142C116.527 92.0938 116.49 92.7347 116.476 92.7737C116.462 92.8143 116.401 92.9704 116.388 93.0117C116.296 93.2498 116.23 93.3101 115.988 93.2899C115.39 92.9995 113.913 92.6121 113.284 92.3079C113.212 92.2718 112.334 91.847 112.017 91.6941C111.84 91.6089 110.96 91.181 110.787 91.098C110.516 90.825 110.601 90.4881 110.684 90.1521C112.169 86.3582 113.305 82.4904 114.739 78.7171L114.741 78.7179ZM119.931 83.6789C119.931 83.6789 120.924 84.2508 120.958 84.2678C121.027 84.3008 122.505 85.0167 122.537 85.0329C122.678 84.7735 123.308 83.337 123.427 83.0209C123.427 83.0209 123.489 82.8633 123.505 82.8219C123.776 82.1071 123.968 81.1662 124.238 80.449C124.655 79.2397 125.163 78.1231 125.405 76.8293C126.266 74.2368 126.001 73.0724 125.378 72.9604C124.755 72.8462 123.753 73.7246 122.965 75.3661C122.775 75.6507 122.317 76.4142 122.287 76.4946C121.863 77.275 121.498 78.1353 121.164 79.0093C120.623 80.4367 120.036 81.9866 119.715 83.4787C119.756 83.5928 119.825 83.6274 119.931 83.6789Z" fill="white"/>
<path d="M130.861 85.3167C130.904 85.2183 131.032 84.9248 131.047 84.8904C131.91 83.1745 132.846 81.462 133.838 79.7787C133.927 79.6652 134.23 79.2227 134.259 79.1594C134.376 79.0613 135.424 77.9001 135.77 77.5265C135.785 77.4937 135.87 77.4596 135.885 77.4253C138.467 75.6593 141.482 75.1975 144.129 77.8645C144.162 77.883 144.174 77.9327 144.202 77.9481C144.52 78.2901 144.853 78.6795 145.087 79.1373C145.635 80.4229 145.595 81.9085 145.51 83.3282C145.286 86.1353 143.8 88.7622 142.78 91.2491C142.736 91.4245 142.29 92.5173 142.248 92.6156C142.19 92.7468 141.513 94.2832 141.269 94.836C141.024 95.3903 140.406 96.7948 140.363 96.8932C140.147 97.3842 139.01 99.7185 138.749 100.223C138.392 100.962 137.467 101.256 136.802 100.882C136.627 100.783 137.321 101.089 135.282 99.7404C135.282 99.7404 135.069 99.4997 135.008 99.3841C134.633 98.847 134.62 98.7179 134.718 98.0797C134.819 97.8486 135.195 96.8372 135.251 96.6259C135.296 96.5306 135.441 96.1202 135.481 96.0226C135.493 95.9089 135.408 95.8612 135.379 95.8474C135.349 95.8304 135.252 95.8132 135.221 95.7962C135.133 95.747 132.823 94.4471 132.719 94.4299C132.634 94.383 132.605 94.5295 132.591 94.5607C132.578 94.592 132.518 94.7239 132.518 94.7239C132.36 95.1656 131.843 96.504 131.829 96.6162C131.8 96.6818 131.742 97.2201 131.728 97.2529L131.642 97.4496C131.555 97.6456 131.496 97.6942 131.295 97.6621C130.804 97.385 129.576 96.9804 129.056 96.6872C129 96.6556 128.277 96.2493 128.016 96.1023C127.873 96.0223 127.15 95.6159 127.005 95.5336C126.788 95.2882 126.875 95.0105 126.959 94.7312C128.37 91.6144 129.492 88.4161 130.859 85.3136L130.861 85.3167ZM135.025 89.7775C135.025 89.7775 135.833 90.3133 135.864 90.3303C135.922 90.3626 137.138 91.0475 137.162 91.0606C137.292 90.8519 137.883 89.6733 137.997 89.4126L138.069 89.2486C138.327 88.6608 138.532 87.8802 138.79 87.2923C139.191 86.2948 139.665 85.3809 139.927 84.3041C140.758 82.1649 140.584 81.1712 140.065 81.0414C139.546 80.9132 138.664 81.5962 137.929 82.9376C137.757 83.1661 137.34 83.7892 137.311 83.8509C136.923 84.491 136.578 85.1916 136.26 85.909C135.743 87.084 135.181 88.3589 134.849 89.5981C134.878 89.696 134.937 89.7267 135.025 89.7775Z" fill="white"/>
<path d="M147.01 92.5425C147.036 92.4871 147.253 92.0606 147.278 92.0068C147.345 91.8732 147.813 90.8278 147.865 90.7192C148.248 89.9017 148.648 89.2397 148.904 88.4121C148.935 88.2912 148.868 88.1764 148.835 88.119L147.028 86.6011C146.64 86.3132 146.706 85.7539 146.749 85.3565C146.76 85.33 146.738 85.3138 146.752 85.2888C147.221 84.4201 147.531 83.5586 147.936 82.7557C148.247 82.141 149.964 83.2135 150.482 83.3697C151.016 83.6769 153.512 85.0744 154.045 85.3831C154.092 85.4131 154.731 85.8247 154.921 85.948C155.181 86.116 155.891 86.5738 155.938 86.6039C157.536 87.6701 156.727 87.7143 156.303 89.1067C156.291 89.1348 156.219 89.586 156.229 89.628C156.238 89.6699 156.183 89.847 156.183 89.847L155.386 91.4255C155.143 91.9051 154.665 91.9167 154.296 91.7152C154.085 91.578 153.038 90.976 152.851 90.8542C152.743 90.8191 152.725 90.9142 152.71 90.9408C152.185 91.9834 151.775 93.1717 151.327 94.3003C151.327 94.3003 151.257 94.5039 151.229 94.5563C151.182 94.7746 151.009 95.3712 150.982 95.422C149.963 97.8139 148.916 100.258 147.755 102.557C147.714 102.638 147.676 102.719 147.632 102.798C147.187 103.681 146.969 104.177 145.875 103.863C145.657 103.794 144.439 103.22 144.167 103.081C144.143 103.067 143.789 102.837 143.624 102.73C143.553 102.684 143.173 102.44 143.079 102.378C142.895 102.117 142.863 101.813 142.79 101.52C144.285 98.6191 145.689 95.5895 147.009 92.5441L147.01 92.5425Z" fill="white"/>
<path d="M156.758 98.3062C156.783 98.264 156.984 97.9139 157.009 97.8694C157.07 97.76 157.508 96.9055 157.559 96.8172C157.915 96.1485 158.279 95.6113 158.531 94.927C158.564 94.8271 158.51 94.727 158.485 94.6782L157.025 93.3004C156.712 93.0409 156.787 92.5686 156.841 92.2358C156.854 92.2155 156.834 92.2009 156.848 92.1813C157.278 91.474 157.581 90.7652 157.954 90.1112C158.243 89.6103 159.642 90.6046 160.072 90.7646C160.508 91.0521 162.552 92.363 162.988 92.6505C163.027 92.6799 163.548 93.061 163.703 93.1745C163.914 93.3288 164.492 93.754 164.53 93.781C165.831 94.7651 165.147 94.7586 164.735 95.9111C164.722 95.933 164.644 96.3087 164.65 96.3453C164.656 96.3795 164.602 96.5262 164.602 96.5262L163.864 97.8132C163.639 98.2039 163.235 98.187 162.933 97.999C162.758 97.8709 161.904 97.3059 161.75 97.1932C161.659 97.158 161.642 97.2375 161.63 97.2602C161.144 98.1111 160.746 99.0891 160.323 100.017C160.323 100.017 160.253 100.185 160.228 100.227C160.179 100.409 160.007 100.902 159.982 100.944C159.022 102.905 158.039 104.907 156.962 106.782C156.923 106.847 156.886 106.912 156.849 106.977C156.436 107.696 156.23 108.104 155.321 107.778C155.14 107.708 154.139 107.16 153.915 107.028C153.897 107.014 153.607 106.802 153.472 106.702C153.414 106.662 153.105 106.433 153.029 106.378C152.886 106.148 152.868 105.888 152.821 105.639C154.206 103.275 155.514 100.798 156.755 98.3008L156.758 98.3062Z" fill="white"/>
<path d="M165.322 103.855C165.345 103.821 165.529 103.537 165.551 103.501C165.61 103.414 166.016 102.716 166.062 102.646C166.389 102.101 166.719 101.668 166.959 101.109C166.991 101.024 166.951 100.937 166.93 100.895L165.758 99.6536C165.505 99.4178 165.588 99.0257 165.65 98.7474C165.661 98.7302 165.644 98.7171 165.656 98.7006C166.05 98.1298 166.331 97.5472 166.676 97.0172C166.94 96.6091 168.078 97.5242 168.433 97.6815C168.79 97.9477 170.455 99.1622 170.81 99.4301C170.842 99.4555 171.268 99.807 171.39 99.9082C171.563 100.051 172.033 100.439 172.064 100.466C173.118 101.363 172.544 101.323 172.147 102.272C172.135 102.289 172.054 102.604 172.058 102.634C172.062 102.664 172.009 102.781 172.009 102.781L171.333 103.827C171.126 104.145 170.789 104.11 170.541 103.934C170.4 103.816 169.704 103.297 169.578 103.192C169.504 103.157 169.485 103.221 169.473 103.24C169.027 103.929 168.654 104.736 168.255 105.494C168.255 105.494 168.191 105.633 168.169 105.667C168.119 105.816 167.951 106.221 167.93 106.258C167.039 107.856 166.123 109.49 165.137 111.012C165.103 111.066 165.069 111.12 165.034 111.172C164.654 111.756 164.465 112.087 163.714 111.766C163.568 111.698 162.743 111.181 162.559 111.057C162.543 111.044 162.31 110.85 162.2 110.76C162.151 110.721 161.901 110.514 161.84 110.463C161.73 110.262 161.727 110.043 161.697 109.83C162.962 107.913 164.172 105.896 165.32 103.858L165.322 103.855Z" fill="white"/>
<path d="M173.586 108.693C174.141 108.633 174.762 108.828 175.19 108.244C175.367 108 175.33 107.726 175.127 107.537C174.735 107.173 174.067 107.368 173.629 107.677C173.33 107.881 173.156 108.293 172.816 107.977C172.625 107.799 172.468 107.463 172.352 107.183C172.321 107.084 172.081 106.48 172.034 106.34C171.968 106.11 171.855 105.861 172.021 105.633C172.291 105.261 172.639 105.129 173.007 104.944C173.399 104.754 173.787 104.687 174.157 104.647C174.933 104.601 175.437 104.926 176.008 105.456C176.527 105.939 176.835 106.415 177.129 107.146C177.437 107.888 177.571 108.488 177.275 109.366C177.19 109.598 177.087 109.911 176.952 110.096C176.85 110.239 176.667 110.405 176.523 110.513C176.493 110.554 176.414 110.577 176.361 110.624C176.022 110.909 176.06 110.798 175.69 110.957C175.566 110.985 175.003 111.087 174.866 111.102C174.866 111.102 174.76 111.101 174.736 111.104C173.778 111.053 172.969 111.69 172.336 112.562C172.168 112.79 172.029 113.045 171.863 113.272C171.853 113.286 171.842 113.301 171.842 113.301C171.831 113.315 171.766 113.376 171.766 113.376C171.231 113.906 171.442 113.647 170.93 113.482C170.674 113.245 170.307 113.025 170.039 112.777C169.925 112.671 169.852 112.626 169.847 112.429C169.871 112.283 170.01 112.126 170.078 111.997C170.376 111.268 170.695 110.536 171.154 109.909C171.778 109.049 172.662 108.796 173.584 108.692L173.586 108.693ZM169.106 113.827C169.367 113.757 169.869 113.626 170.11 113.847C170.299 114.026 170.238 114.135 170.293 114.355C170.304 114.365 170.362 114.49 170.365 114.517C170.488 114.87 170.555 115.389 170.306 115.732C170.161 115.93 169.569 115.839 169.414 115.765C169.292 115.698 169.116 115.535 169.013 115.44C168.989 115.419 168.848 115.289 168.809 115.253C168.629 114.918 168.575 114.411 168.836 114.053C168.907 113.953 168.996 113.892 169.105 113.827L169.106 113.827Z" fill="white"/>
<path d="M178.071 114.142C178.538 114.121 179.055 114.319 179.439 113.848C179.598 113.653 179.58 113.422 179.419 113.253C179.105 112.925 178.532 113.052 178.15 113.291C177.89 113.446 177.727 113.784 177.453 113.499C177.299 113.34 177.182 113.048 177.096 112.809C177.072 112.722 176.898 112.2 176.863 112.08C176.818 111.883 176.73 111.664 176.882 111.481C177.124 111.181 177.425 111.093 177.743 110.956C178.081 110.819 178.413 110.781 178.724 110.766C179.38 110.771 179.791 111.071 180.25 111.548C180.667 111.982 180.908 112.402 181.126 113.033C181.356 113.675 181.442 114.189 181.155 114.911C181.073 115.1 180.975 115.359 180.853 115.509C180.76 115.624 180.599 115.753 180.474 115.835C180.445 115.87 180.378 115.885 180.33 115.92C180.035 116.144 180.07 116.053 179.753 116.169C179.645 116.183 179.17 116.241 179.051 116.245C179.051 116.245 178.965 116.237 178.944 116.239C178.136 116.142 177.431 116.64 176.861 117.34C176.711 117.522 176.581 117.73 176.433 117.913C176.424 117.925 176.414 117.935 176.414 117.935C176.406 117.946 176.349 117.994 176.349 117.994C175.874 118.413 176.061 118.205 175.637 118.036C175.433 117.826 175.132 117.619 174.918 117.396C174.828 117.3 174.765 117.258 174.77 117.094C174.795 116.97 174.918 116.844 174.983 116.74C175.263 116.142 175.565 115.543 175.978 115.038C176.541 114.348 177.296 114.182 178.077 114.144L178.071 114.142ZM174.081 118.228C174.306 118.184 174.732 118.097 174.925 118.298C175.077 118.456 175.021 118.547 175.057 118.734C175.069 118.744 175.112 118.854 175.111 118.877C175.2 119.183 175.235 119.623 175.011 119.896C174.88 120.058 174.384 119.947 174.257 119.876C174.159 119.814 174.015 119.664 173.935 119.582C173.915 119.562 173.803 119.445 173.771 119.412C173.633 119.121 173.61 118.691 173.845 118.403C173.909 118.324 173.985 118.275 174.082 118.226L174.081 118.228Z" fill="white"/>
<path d="M181.748 118.619C182.143 118.626 182.569 118.82 182.912 118.443C183.055 118.288 183.05 118.091 182.918 117.94C182.668 117.647 182.18 117.723 181.848 117.905C181.623 118.02 181.471 118.296 181.251 118.042C181.13 117.901 181.041 117.648 180.979 117.44C180.964 117.366 180.837 116.915 180.814 116.815C180.783 116.644 180.719 116.457 180.853 116.311C181.071 116.071 181.327 116.012 181.6 115.913C181.891 115.817 182.172 115.803 182.436 115.808C182.987 115.845 183.323 116.122 183.687 116.549C184.019 116.936 184.207 117.305 184.361 117.846C184.525 118.4 184.579 118.839 184.307 119.431C184.229 119.589 184.135 119.801 184.027 119.919C183.943 120.01 183.803 120.111 183.694 120.174C183.667 120.2 183.612 120.208 183.57 120.238C183.311 120.41 183.345 120.336 183.072 120.414C182.983 120.423 182.577 120.443 182.48 120.442C182.48 120.442 182.405 120.429 182.389 120.43C181.713 120.306 181.096 120.686 180.586 121.244C180.453 121.391 180.336 121.557 180.201 121.705C180.191 121.715 180.184 121.725 180.184 121.725C180.176 121.734 180.125 121.772 180.125 121.772C179.708 122.098 179.876 121.934 179.522 121.768C179.361 121.579 179.115 121.39 178.946 121.191C178.872 121.105 178.822 121.066 178.833 120.926C178.859 120.824 178.967 120.721 179.026 120.642C179.289 120.153 179.568 119.663 179.937 119.258C180.44 118.708 181.083 118.608 181.744 118.619L181.748 118.619ZM178.212 121.846C178.403 121.822 178.767 121.772 178.92 121.952C179.042 122.094 178.991 122.167 179.014 122.327C179.021 122.335 179.055 122.431 179.054 122.448C179.115 122.709 179.126 123.082 178.925 123.302C178.807 123.431 178.397 123.313 178.293 123.245C178.212 123.19 178.097 123.055 178.031 122.979C178.017 122.963 177.926 122.856 177.902 122.828C177.799 122.576 177.795 122.211 178.006 121.981C178.063 121.917 178.13 121.881 178.214 121.846L178.212 121.846Z" fill="white"/>
<path d="M62.6338 96.3154C73.2257 97.1909 83.6804 97.7628 94.2073 99.5277C107.078 101.685 119.707 105.229 132.383 108.483C132.592 108.538 132.638 108.192 132.444 108.121C120.048 103.606 107.27 100.603 94.4033 98.3735C84.1065 96.5892 73.0706 95.0106 62.6451 96.1005C62.5404 96.112 62.5207 96.3068 62.6338 96.3154Z" fill="url(#paint1_linear_3_1413)"/>
<path d="M133.627 108.772C133.788 108.835 133.846 108.986 133.999 109.041C134.336 109.163 134.67 109.252 135.014 109.337C135.716 109.511 136.222 109.575 136.928 109.442C137.046 109.42 137.096 109.238 136.975 109.173C136.419 108.868 135.978 108.694 135.36 108.594C135.055 108.545 134.738 108.461 134.43 108.455C134.132 108.448 133.935 108.567 133.66 108.583C133.577 108.587 133.54 108.739 133.626 108.774L133.627 108.772Z" fill="url(#paint2_linear_3_1413)"/>
<path d="M27.5299 20.2254C37.6715 16.1402 47.1513 16.049 57.5589 19.1584C57.7673 19.2201 57.8545 18.8708 57.6755 18.7653C49.239 13.7436 35.0911 12.4795 27.4117 20.0238C27.3247 20.1092 27.4316 20.2657 27.5313 20.2262L27.5299 20.2254Z" fill="url(#paint3_linear_3_1413)"/>
<path d="M241.871 73.7903C242.244 73.3144 242.135 72.7357 242.015 72.164C241.882 71.5252 241.607 70.8451 240.988 70.7079C240.899 70.6882 240.792 70.7404 240.774 70.8512C240.683 71.3944 240.862 71.8191 241.044 72.3154C241.231 72.8272 241.247 73.3698 241.592 73.7924C241.662 73.8784 241.803 73.879 241.872 73.7906L241.871 73.7903Z" fill="white"/>
<path fill-rule="evenodd" clip-rule="evenodd" d="M249.328 32.519C249.404 32.3367 249.69 32.4154 249.675 32.6201L249.677 32.6163C249.241 38.4648 247.181 44.6178 244.521 50.2893C244.087 51.8736 243.633 53.4383 243.127 54.974C249.819 59.4895 255.448 66.2946 259.138 74.3864C263.367 83.6598 264.599 93.8389 262.608 103.047C260.919 110.861 257.781 117.799 253.533 123.114C248.955 128.84 243.245 132.385 237.021 133.364C236.769 133.403 236.575 133.634 236.551 133.92C236.397 135.819 236.061 137.777 235.735 139.67C235.55 140.743 235.376 141.756 235.246 142.7C235.073 143.951 234.904 145.222 234.739 146.463L234.68 146.91L234.679 146.918C234.15 150.904 233.604 155.027 232.885 159.028C232.331 162.109 231.851 163.296 228.982 163.54C226.096 163.785 223.172 163.456 220.343 163.138L220.333 163.137L220.215 163.123C219.379 163.03 218.519 162.933 217.667 162.853C217.604 162.847 217.536 162.834 217.468 162.815C217.194 162.735 216.738 162.474 216.776 162.007C216.843 161.164 216.915 160.322 216.988 159.479C217.002 159.315 217.016 159.151 217.03 158.987L217.039 158.874C217.22 156.763 217.407 154.586 217.542 152.435C217.583 151.777 217.603 151.112 217.622 150.469L217.622 150.457C217.652 149.443 217.681 148.483 217.788 147.533C217.806 147.364 217.763 147.193 217.668 147.062C217.594 146.959 217.493 146.888 217.382 146.855C217.349 146.846 217.316 146.839 217.282 146.837C215.368 146.691 213.197 146.526 212.886 148.1C212.755 148.762 212.633 149.447 212.504 150.173L212.503 150.182C211.935 153.372 211.293 156.985 209.693 159.361C209.01 160.377 207.84 160.625 206.118 160.123L206.115 160.121C203.363 159.319 199.922 156.754 197.644 155.055L197.581 155.008C196.784 154.415 196.097 153.903 195.603 153.589C195.469 153.505 195.38 153.283 195.42 153.134C195.521 152.762 195.624 152.382 195.728 151.994L195.73 151.983C196.578 148.826 197.537 145.248 199.122 142.513C199.204 142.371 199.231 142.199 199.198 142.036C199.164 141.872 199.073 141.73 198.945 141.643C197.864 140.911 196.814 140.175 195.826 139.453C195.776 139.415 195.72 139.389 195.666 139.373C195.455 139.311 195.224 139.396 195.088 139.605C194.185 140.982 193.17 142.41 191.792 144.23C191.789 144.233 191.787 144.237 191.785 144.24C191.777 144.25 191.77 144.259 191.764 144.27C191.729 144.327 191.694 144.382 191.659 144.437L191.657 144.439C191.644 144.461 191.63 144.483 191.616 144.505C191.593 144.544 191.569 144.582 191.544 144.62C191.416 144.817 191.278 145.043 191.132 145.28L191.107 145.321C190.49 146.328 189.644 147.707 188.718 148.463C188.693 148.483 188.671 148.505 188.649 148.529C188.247 148.986 187.877 149.265 187.518 149.381C187.286 149.455 186.995 149.443 186.652 149.343C185.904 149.125 185.08 148.548 184.478 148.125C184.441 148.1 184.406 148.075 184.371 148.051C184.299 148 184.23 147.952 184.165 147.908C182.341 146.663 180.153 144.768 177.665 142.276C176.172 140.782 175.533 139.729 175.457 138.645C175.379 137.541 175.863 136.252 176.786 134.259C179.891 127.542 182.897 122.187 185.972 117.889C186.153 117.637 186.129 117.269 185.919 117.047C185.352 116.45 184.822 115.801 184.343 115.117C179.287 107.899 177.492 97.9887 179.289 87.2155C180.911 77.4962 185.417 67.8522 191.344 61.4184C195.083 57.3586 199.038 54.2341 203.174 52.0644C202.835 49.5328 202.689 46.9589 202.557 44.644C202.552 44.5674 202.548 44.491 202.544 44.4149C202.323 40.5376 202.297 36.6556 202.392 32.7757C202.15 29.5948 202.109 26.4121 202.608 23.4321C202.649 23.1898 202.957 23.2118 203.015 23.4274C203.098 23.734 203.167 24.0469 203.235 24.3595C203.256 24.4549 203.276 24.5502 203.298 24.6453C203.307 24.5827 203.315 24.5196 203.324 24.4563C203.339 24.3431 203.354 24.2295 203.373 24.1182C203.237 23.6289 203.124 23.1358 203.044 22.6385C203.016 22.4726 203.193 22.3151 203.312 22.4596C204.811 24.2878 206.076 26.419 207.339 28.5482C208.29 30.1501 209.24 31.751 210.288 33.2209C211.043 34.2797 211.824 35.31 212.604 36.3392C213.279 37.2289 213.953 38.1178 214.608 39.0237C217.496 32.3495 221.18 25.7537 224.859 20.0651C224.936 19.946 225.148 19.9612 225.136 20.1458C225.13 20.2316 225.121 20.3158 225.112 20.4001C225.106 20.4477 225.101 20.4953 225.096 20.5432C225.269 20.4055 225.463 20.3086 225.673 20.263C225.65 20.189 225.626 20.1152 225.603 20.0413C225.56 19.9073 225.517 19.7733 225.479 19.6379C225.447 19.5264 225.493 19.4512 225.56 19.4136L225.548 19.3684C225.451 19.0248 225.355 18.6806 225.282 18.3321C225.249 18.1781 225.406 18.0767 225.509 18.1803C228.117 20.7911 229.784 25.0953 231.213 28.7844C231.339 29.1097 231.463 29.4303 231.586 29.7445C231.233 28.4564 230.944 27.1448 230.77 25.7855C230.754 25.6469 230.951 25.5885 231.001 25.7115C231.935 27.9646 232.797 30.2549 233.659 32.545C234.067 33.6284 234.475 34.7118 234.89 35.7912C235.053 36.2142 235.224 36.6411 235.396 37.0715C235.594 37.567 235.794 38.0671 235.986 38.5713C237.229 36.8262 238.611 35.1896 240.013 33.5451C240.364 33.133 240.71 32.7042 241.054 32.2677C242.959 29.7453 244.849 27.2084 246.729 24.6608C246.953 24.3574 247.199 24.1932 247.447 24.1285C247.937 23.6035 248.437 23.0979 248.959 22.6378C249.054 22.5542 249.193 22.6264 249.166 22.772C249.159 22.8134 249.149 22.8545 249.14 22.8956C249.132 22.9299 249.124 22.9641 249.117 22.9984C249.134 22.9611 249.151 22.9234 249.167 22.8856C249.189 22.836 249.211 22.7864 249.234 22.7376C249.314 22.5744 249.569 22.6352 249.559 22.8322C249.501 23.912 249.403 25.0083 249.285 26.1112C250.124 25.2952 250.982 24.5045 251.872 23.762C252.067 23.5994 252.36 23.9209 252.213 24.1429C251.192 25.6952 250.093 27.2205 248.961 28.7285C248.935 28.9069 248.907 29.0857 248.878 29.2648C248.86 29.3813 248.841 29.498 248.823 29.615C248.493 32.1057 248.097 34.585 247.633 37.0488C248.158 35.517 248.707 33.9985 249.328 32.519ZM206.406 50.5779C208.785 49.6347 211.218 48.9952 213.699 48.6631C219.904 47.8334 226.614 48.3343 232.594 50.0771C235.48 50.9183 238.163 52.0341 240.578 53.3953C240.756 52.7514 240.936 52.1081 241.117 51.4644C241.708 49.3568 242.299 47.2459 242.819 45.1035C243.76 41.2279 244.597 37.3235 245.262 33.3827C242.913 36.18 240.438 38.8685 237.923 41.422C237.773 41.6111 237.621 41.7989 237.47 41.9867C237.348 42.1374 237.226 42.2881 237.105 42.4396C237.213 43.0996 237.275 43.7674 237.256 44.4448C237.249 44.6623 237.016 44.7268 236.91 44.5559C236.688 44.1994 236.485 43.8289 236.293 43.4483C236.164 43.6077 236.035 43.7682 235.907 43.9289C235.739 44.1384 235.572 44.3481 235.401 44.5556C235.475 45.0133 235.517 45.4796 235.487 45.9583C235.473 46.1649 235.288 46.2463 235.149 46.1215C234.895 45.894 234.656 45.6408 234.426 45.3754C234.25 45.4219 234.072 45.4151 233.895 45.3829C233.855 45.4209 233.816 45.4592 233.777 45.4976C233.689 45.5829 233.601 45.6683 233.514 45.7517C233.385 45.8721 233.179 45.7654 233.222 45.5644C233.243 45.4628 233.272 45.3641 233.3 45.265C233.311 45.2287 233.321 45.1922 233.331 45.1556C233.208 45.0716 233.097 44.9653 232.996 44.8444C232.821 44.9676 232.62 44.7603 232.706 44.5371C232.712 44.5216 232.719 44.5063 232.726 44.491C232.733 44.4757 232.739 44.4604 232.746 44.4449C232.736 44.4234 232.726 44.4023 232.716 44.3812C232.688 44.3239 232.661 44.2667 232.641 44.2038C232.257 42.9434 231.851 41.6949 231.445 40.4463L231.368 40.2095C231.205 39.8821 231.043 39.5597 230.879 39.2489C229.821 37.2271 229.041 35.1304 228.803 32.8274C227.928 30.4801 226.987 28.1666 226.007 25.87C225.071 27.9419 224.077 29.9792 223.083 32.016C221.07 36.1419 219.058 40.2658 217.524 44.6715C217.178 45.6641 216.048 46.296 215.284 45.368C215.001 45.0231 214.711 44.6735 214.419 44.3221C214.288 44.1635 214.156 44.0045 214.024 43.8455C213.412 44.8583 212.77 45.8491 212.076 46.7959C211.945 46.9757 211.65 46.7892 211.722 46.5693C212.139 45.2952 212.601 44.0115 213.096 42.7253C210.319 39.374 207.438 35.812 205.096 32.0387C204.994 35.1569 204.97 38.2755 205.036 41.3977C205.289 43.4035 205.604 45.4054 205.918 47.4081C206.084 48.4642 206.25 49.5206 206.406 50.5779ZM215.897 40.8884C216.049 40.4545 216.208 40.0238 216.368 39.5952L216.367 39.5949C216.175 39.9705 215.979 40.3422 215.782 40.715C215.806 40.7494 215.829 40.7847 215.852 40.8201C215.867 40.8428 215.882 40.8657 215.897 40.8884Z" fill="url(#paint4_linear_3_1413)"/>
<path d="M207.807 150.756C205.496 150.082 202.606 147.928 200.694 146.502C200.002 145.987 199.405 145.541 198.98 145.271C198.867 145.2 198.792 145.014 198.827 144.889C198.911 144.577 198.998 144.257 199.084 143.931C199.796 141.278 200.603 138.27 201.935 135.97C202.003 135.852 202.026 135.707 201.998 135.57C201.97 135.433 201.894 135.313 201.786 135.24C200.878 134.626 199.996 134.007 199.167 133.401C199.125 133.37 199.079 133.347 199.032 133.334C198.855 133.282 198.661 133.353 198.548 133.528C197.789 134.685 196.937 135.884 195.78 137.412C195.771 137.424 195.763 137.434 195.756 137.446C195.726 137.494 195.697 137.541 195.667 137.588C195.635 137.638 195.604 137.69 195.572 137.739C195.458 137.915 195.335 138.116 195.205 138.328C194.687 139.174 193.976 140.332 193.199 140.967C193.178 140.983 193.159 141.002 193.141 141.022C192.803 141.406 192.493 141.64 192.191 141.738C191.997 141.8 191.752 141.789 191.464 141.705C190.836 141.522 190.144 141.038 189.638 140.683C189.545 140.618 189.457 140.556 189.376 140.501C187.844 139.455 186.007 137.864 183.917 135.771C182.665 134.517 182.127 133.633 182.064 132.723C181.998 131.796 182.405 130.713 183.18 129.04C185.787 123.4 188.311 118.903 190.893 115.295C191.045 115.083 191.025 114.774 190.849 114.587C190.373 114.086 189.927 113.541 189.525 112.966C185.279 106.906 183.772 98.5845 185.282 89.5385C186.643 81.3775 190.427 73.2797 195.404 67.8774C201.118 61.6722 207.434 58.0694 214.175 57.167C219.385 56.4703 225.019 56.891 230.041 58.3544C232.592 59.0978 234.953 60.0968 237.062 61.3227C243.48 65.0545 248.901 71.2492 252.329 78.7663C255.88 86.5529 256.914 95.1001 255.243 102.832C253.824 109.393 251.19 115.219 247.622 119.682C243.778 124.49 238.984 127.466 233.758 128.288C233.546 128.321 233.383 128.515 233.363 128.756C233.234 130.35 232.951 131.994 232.678 133.584C232.522 134.484 232.376 135.335 232.267 136.127C232.104 137.305 231.946 138.503 231.792 139.663C231.348 143.012 230.889 146.476 230.285 149.838C229.819 152.425 229.416 153.421 227.007 153.626C224.582 153.832 222.123 153.555 219.745 153.288C219.013 153.206 218.255 153.12 217.507 153.05C217.453 153.044 217.396 153.034 217.34 153.017C217.109 152.95 216.727 152.731 216.758 152.339C216.826 151.494 216.899 150.649 216.971 149.803C217.126 148.002 217.286 146.14 217.401 144.302C217.436 143.749 217.453 143.191 217.469 142.651C217.494 141.796 217.518 140.987 217.608 140.186C217.623 140.044 217.587 139.901 217.507 139.79C217.445 139.704 217.36 139.644 217.267 139.617C217.24 139.609 217.212 139.603 217.183 139.601C215.576 139.479 213.753 139.34 213.492 140.662C213.382 141.217 213.279 141.792 213.171 142.403C212.695 145.083 212.156 148.121 210.811 150.117C210.237 150.97 209.255 151.179 207.809 150.758L207.807 150.756Z" fill="white"/>
<path d="M255.689 102.957C259.283 86.3325 250.362 68.4749 237.272 60.8624C230.456 56.8995 221.668 55.6416 214.119 56.652C206.728 57.6414 200.393 61.7399 195.083 67.5037C185.046 78.4001 179.747 99.8504 189.163 113.29C189.591 113.901 190.048 114.459 190.533 114.969C187.518 119.182 184.97 124.042 182.77 128.8C181.191 132.216 180.958 133.505 183.61 136.162C185.25 137.804 187.273 139.677 189.135 140.947C189.899 141.468 191.294 142.566 192.315 142.239C192.739 142.102 193.118 141.783 193.465 141.389C194.505 140.541 195.363 138.944 195.942 138.047C196.005 137.949 196.064 137.85 196.127 137.751C197.091 136.477 198.03 135.189 198.915 133.839C199.784 134.473 200.662 135.088 201.548 135.687C200.013 138.338 199.165 141.875 198.385 144.738C198.284 145.108 198.46 145.54 198.753 145.726C201.06 147.187 208.713 154.085 211.175 150.432C212.891 147.884 213.334 143.842 213.938 140.776C214.109 139.912 215.642 140.006 217.15 140.121C216.997 141.477 217.028 142.88 216.941 144.265C216.772 146.945 216.515 149.618 216.299 152.292C216.238 153.046 216.899 153.515 217.467 153.57C220.663 153.871 223.825 154.421 227.04 154.147C229.72 153.919 230.24 152.686 230.734 149.945C231.551 145.402 232.088 140.789 232.721 136.21C233.02 134.042 233.615 131.342 233.82 128.805C245.152 127.023 252.91 115.809 255.689 102.957ZM227.52 126.159C226.343 126.367 226.358 128.67 227.549 128.837C228.349 128.949 229.133 129.011 229.905 129.036C229.016 135.914 227.876 142.741 226.885 149.601C224.664 149.61 222.444 149.573 220.225 149.659C220.334 147.875 220.464 146.093 220.629 144.312C220.794 142.53 221.524 139.915 221.137 138.162C220.677 136.078 218.449 135.87 216.879 135.685C215.411 135.51 212.505 135.317 211.446 136.829C210.549 138.11 210.339 140.34 209.921 141.88C209.459 143.576 208.998 145.273 208.54 146.972C206.343 146.326 204.421 145.303 202.469 143.958C202.833 142.363 203.25 140.794 203.744 139.237C204.116 138.066 205.235 136.259 205.203 134.959C205.16 133.254 203.545 132.129 202.43 131.28C197.321 127.393 195.509 133.92 192.756 137.718C191.986 138.78 192.392 138.998 191.239 138.173C190.295 137.496 189.425 136.706 188.568 135.899C187.73 135.109 186.94 134.259 186.173 133.381C185.79 132.943 185.431 132.479 185.114 131.978C187.705 126.957 190.286 121.929 192.971 116.972C193.894 117.555 194.888 118.02 195.958 118.365C196.889 118.665 197.477 117.077 196.604 116.573C190.321 112.94 188.597 103.324 188.512 95.9966C188.421 88.0956 191.09 80.3698 195.386 74.2161C204.658 60.9356 218.785 58.9298 232.416 63.8142C244.953 68.3065 253.824 85.0976 251.873 99.6011C250.924 106.665 248.032 113.536 243.464 118.491C239.177 123.141 233.255 125.143 227.525 126.158L227.52 126.159Z" fill="url(#paint5_linear_3_1413)"/>
<path d="M240.563 77.4175C235.058 73.482 228.087 77.4695 223.667 81.4795C221.635 83.3247 220.003 85.6112 218.717 88.145C216.343 92.4631 214.868 97.5043 214.514 102.284C214.027 108.848 216.819 114.473 222.031 117.375C227.829 120.606 234.908 118.507 239.876 114.392C249.538 106.388 251.465 85.2109 240.562 77.416L240.563 77.4175Z" fill="url(#paint6_linear_3_1413)"/>
<path d="M212.622 80.1637C212.633 79.802 212.385 79.5163 212.099 79.4139C209.452 78.4668 205.964 81.512 203.557 83.3794C202.56 80.6917 201.091 76.7463 198.804 76.6949C198.519 76.689 198.315 76.9263 198.227 77.2088C197.457 79.6959 199.255 83.2597 200.294 85.7627C197.507 87.8653 195.016 90.2133 193.655 93.8961C193.427 94.5152 193.825 95.5306 194.554 95.1975C197.23 93.9681 199.582 92.2753 201.932 90.505C202.958 93.6064 204.158 96.7713 206.352 98.6913C206.803 99.0855 207.644 99.0463 207.762 98.2536C208.283 94.7491 206.904 91.1746 205.458 87.8825C208.039 86.1178 212.515 83.7002 212.622 80.1649L212.622 80.1637Z" fill="url(#paint7_linear_3_1413)"/>
<path d="M212.939 116.462C212.348 115.762 211.255 116.128 211.052 117.049C211.026 117.163 211.011 117.277 210.991 117.391C210.989 117.398 210.984 117.402 210.982 117.409C210.783 117.992 210.743 118.626 210.644 119.239C210.528 119.957 210.384 120.668 210.278 121.389C210.196 121.95 210.422 122.496 210.938 122.651C211.892 122.939 212.873 123.01 213.855 122.924C214.33 122.882 214.844 122.443 214.786 121.837C214.592 119.859 214.194 117.947 212.94 116.462L212.939 116.462Z" fill="url(#paint8_linear_3_1413)"/>
<path d="M208.343 114.547C207.525 115.085 206.702 115.635 205.845 116.087C205.184 116.434 204.412 116.743 203.975 117.443C203.54 118.139 203.715 118.846 204.338 119.284C205.203 119.893 206.081 120.414 206.928 121.066C207.296 121.348 207.886 121.152 208.084 120.713C208.472 119.851 208.74 118.935 209.022 118.025C209.241 117.313 209.564 116.481 209.614 115.707C209.813 114.887 209.077 114.061 208.342 114.545L208.343 114.547Z" fill="url(#paint9_linear_3_1413)"/>
<path d="M244.771 90.5459C243.831 96.2925 242.159 100.922 238.78 105.496C235.131 110.436 229.795 113.797 224.089 114.369C223.851 114.393 223.689 114.811 223.958 114.94C230.169 117.928 236.138 113.464 240.261 108.342C243.316 104.547 248.055 95.7678 245.019 90.5055C244.959 90.4009 244.794 90.4061 244.771 90.5447L244.771 90.5459Z" fill="white"/>
<path d="M244.96 88.8959C245.334 88.42 245.224 87.8413 245.104 87.2696C244.971 86.6308 244.696 85.9507 244.078 85.8135C243.988 85.7938 243.881 85.846 243.863 85.9567C243.772 86.5 243.951 86.9247 244.133 87.421C244.32 87.9328 244.336 88.4754 244.681 88.898C244.751 88.984 244.892 88.9846 244.961 88.8962L244.96 88.8959Z" fill="white"/>
<path d="M244.383 43.6962C244.395 43.5242 244.156 43.4582 244.091 43.6113C243.57 44.8535 243.109 46.1286 242.669 47.4148C243.058 45.346 243.39 43.2642 243.668 41.1728C243.706 40.9237 243.748 40.6758 243.783 40.4284C244.734 39.1622 245.657 37.8815 246.514 36.578C246.637 36.3916 246.392 36.1217 246.227 36.2582C245.48 36.8816 244.76 37.5456 244.056 38.2308C244.154 37.3047 244.237 36.3841 244.285 35.4775C244.294 35.3121 244.08 35.261 244.013 35.3981C243.978 35.4702 243.948 35.5447 243.915 35.617C243.927 35.5537 243.945 35.4906 243.956 35.427C243.978 35.3047 243.861 35.2441 243.781 35.3143C243.343 35.7006 242.923 36.1251 242.512 36.5659C242.304 36.6202 242.097 36.7582 241.909 37.0129C240.331 39.1521 238.743 41.2823 237.144 43.4002C236.855 43.7668 236.565 44.1268 236.27 44.4728C235.093 45.8537 233.932 47.2279 232.889 48.6932C232.588 47.902 232.263 47.1227 231.969 46.3589C230.882 43.5367 229.859 40.6821 228.703 37.8952C228.661 37.7919 228.495 37.8409 228.509 37.9573C228.655 39.0987 228.898 40.2 229.194 41.2815C227.922 38.0262 226.474 33.957 224.092 31.5714C224.005 31.4844 223.873 31.5696 223.9 31.6988C223.965 32.0043 224.05 32.3058 224.135 32.6069C224.078 32.6385 224.039 32.7017 224.066 32.7953C224.116 32.9716 224.175 33.1453 224.229 33.3202C224.052 33.3585 223.89 33.4398 223.745 33.5555C223.756 33.4438 223.771 33.3344 223.778 33.2218C223.788 33.0667 223.61 33.054 223.546 33.154C220.457 37.9306 217.363 43.4689 214.938 49.0731C213.751 47.4326 212.492 45.8583 211.311 44.2006C209.26 41.3258 207.659 37.8548 205.453 35.1646C205.353 35.0433 205.205 35.1755 205.228 35.3148C205.296 35.7325 205.39 36.1464 205.504 36.5573C205.48 36.703 205.462 36.8533 205.441 36.9999C205.365 36.6582 205.295 36.3132 205.204 35.9773C205.155 35.7962 204.896 35.7777 204.862 35.9812C204.443 38.4834 204.478 41.1559 204.681 43.8268C204.601 47.0847 204.622 50.3443 204.808 53.5999C205.049 57.8304 205.327 63.1474 207.21 66.8816C207.418 67.2918 207.926 67.0751 207.947 66.6466C207.98 65.9401 207.971 65.224 207.948 64.5037C208.053 64.7893 208.149 65.0787 208.263 65.3597C208.378 65.6394 208.784 65.4937 208.767 65.1996C208.49 60.4574 207.495 55.7748 206.901 51.0664C206.846 48.4448 206.865 45.8263 206.951 43.2079C208.917 46.3763 211.337 49.3672 213.669 52.1812C213.253 53.2612 212.865 54.3391 212.515 55.409C212.455 55.5936 212.702 55.7502 212.812 55.5992C213.395 54.8042 213.934 53.9723 214.448 53.1218C214.803 53.5513 215.16 53.98 215.506 54.4002C216.147 55.1795 217.096 54.6488 217.387 53.8154C219.31 48.2898 222.13 43.292 224.51 38.0283C225.333 39.9567 226.122 41.8993 226.857 43.8702C227.057 45.804 227.712 47.5646 228.601 49.2621C228.738 49.5231 228.874 49.7939 229.011 50.0688C229.374 51.1836 229.738 52.2974 230.08 53.4227C230.102 53.495 230.137 53.5581 230.168 53.6251C230.157 53.6511 230.145 53.6765 230.134 53.7026C230.062 53.89 230.231 54.064 230.378 53.9606C230.462 54.0621 230.556 54.1513 230.66 54.2219C230.628 54.3364 230.592 54.4485 230.568 54.5652C230.532 54.734 230.704 54.8235 230.813 54.7224C230.92 54.621 231.026 54.5157 231.133 54.4127C231.282 54.4398 231.431 54.4455 231.579 54.4064C231.772 54.6293 231.972 54.8419 232.186 55.0329C232.303 55.1377 232.458 55.0693 232.47 54.8959C232.494 54.4939 232.46 54.1024 232.398 53.7181C232.65 53.4103 232.896 53.0967 233.147 52.7883C233.307 53.1079 233.478 53.419 233.664 53.7184C233.753 53.8618 233.949 53.8077 233.955 53.625C233.971 53.0563 233.919 52.4955 233.828 51.9413C234.057 51.6555 234.288 51.373 234.515 51.0869C236.627 48.9427 238.705 46.6853 240.678 44.3365C240.119 47.6455 239.416 50.9239 238.626 54.1782C237.83 57.4596 236.833 60.6534 236.006 63.902C235.485 65.0004 234.968 66.1015 234.47 67.2117C234.285 67.6263 234.777 67.9238 235.011 67.5639C235.074 67.4671 235.137 67.3656 235.2 67.2677C235.019 67.9249 234.848 68.5846 234.693 69.2519C234.66 69.3975 234.739 69.5014 234.839 69.537C234.801 69.7923 234.752 70.0446 234.719 70.3027C234.677 70.6262 235.009 70.7735 235.177 70.5133C237.559 66.8602 238.89 62.78 240.056 58.5326C242.289 53.7703 244.018 48.6038 244.385 43.6929L244.383 43.6962ZM216.416 49.553C216.281 49.9128 216.148 50.2745 216.02 50.6388C215.988 50.5902 215.957 50.5407 215.924 50.4933C216.089 50.1802 216.253 49.8681 216.415 49.5527L216.416 49.553Z" fill="white"/>
<defs>
<linearGradient id="paint0_linear_3_1413" x1="2.02139e-05" y1="72.4412" x2="108.484" y2="-18.2989" gradientUnits="userSpaceOnUse">
<stop stop-color="#833AB4"/>
<stop offset="0.5" stop-color="#FD1D1D"/>
<stop offset="1" stop-color="#FCB045"/>
</linearGradient>
<linearGradient id="paint1_linear_3_1413" x1="62.5249" y1="96.2638" x2="94.5273" y2="66.8155" gradientUnits="userSpaceOnUse">
<stop stop-color="#833AB4"/>
<stop offset="0.5" stop-color="#FD1D1D"/>
<stop offset="1" stop-color="#FCB045"/>
</linearGradient>
<linearGradient id="paint2_linear_3_1413" x1="133.526" y1="108.783" x2="135.363" y2="107.216" gradientUnits="userSpaceOnUse">
<stop stop-color="#833AB4"/>
<stop offset="0.5" stop-color="#FD1D1D"/>
<stop offset="1" stop-color="#FCB045"/>
</linearGradient>
<linearGradient id="paint3_linear_3_1413" x1="27.3436" y1="20.1598" x2="49.812" y2="6.05468" gradientUnits="userSpaceOnUse">
<stop stop-color="#833AB4"/>
<stop offset="0.5" stop-color="#FD1D1D"/>
<stop offset="1" stop-color="#FCB045"/>
</linearGradient>
<linearGradient id="paint4_linear_3_1413" x1="165.269" y1="148.219" x2="301.821" y2="107.156" gradientUnits="userSpaceOnUse">
<stop stop-color="#833AB4"/>
<stop offset="0.5" stop-color="#FD1D1D"/>
<stop offset="1" stop-color="#FCB045"/>
</linearGradient>
<linearGradient id="paint5_linear_3_1413" x1="172.946" y1="141.134" x2="276.359" y2="97.5577" gradientUnits="userSpaceOnUse">
<stop stop-color="#833AB4"/>
<stop offset="0.5" stop-color="#FD1D1D"/>
<stop offset="1" stop-color="#FCB045"/>
</linearGradient>
<linearGradient id="paint6_linear_3_1413" x1="211.323" y1="114.579" x2="258.238" y2="95.8222" gradientUnits="userSpaceOnUse">
<stop stop-color="#833AB4"/>
<stop offset="0.5" stop-color="#FD1D1D"/>
<stop offset="1" stop-color="#FCB045"/>
</linearGradient>
<linearGradient id="paint7_linear_3_1413" x1="193.389" y1="95.026" x2="215.379" y2="85.5223" gradientUnits="userSpaceOnUse">
<stop stop-color="#833AB4"/>
<stop offset="0.5" stop-color="#FD1D1D"/>
<stop offset="1" stop-color="#FCB045"/>
</linearGradient>
<linearGradient id="paint8_linear_3_1413" x1="209.837" y1="122.33" x2="216.861" y2="119.566" gradientUnits="userSpaceOnUse">
<stop stop-color="#833AB4"/>
<stop offset="0.5" stop-color="#FD1D1D"/>
<stop offset="1" stop-color="#FCB045"/>
</linearGradient>
<linearGradient id="paint9_linear_3_1413" x1="203.284" y1="120.048" x2="210.816" y2="116.874" gradientUnits="userSpaceOnUse">
<stop stop-color="#833AB4"/>
<stop offset="0.5" stop-color="#FD1D1D"/>
<stop offset="1" stop-color="#FCB045"/>
</linearGradient>
</defs>
</svg>
