<svg width="23" height="23" viewBox="0 0 23 23" fill="none" xmlns="http://www.w3.org/2000/svg">
<path d="M12.9999 11.5056L17.2591 7.24634C17.4613 7.04454 17.575 6.77074 17.5753 6.4851C17.5755 6.1995 17.4623 5.92548 17.2605 5.72332C17.0587 5.52116 16.7849 5.40746 16.4993 5.40724C16.2137 5.40697 15.9396 5.52017 15.7375 5.72197L11.4782 9.98123L7.21895 5.72197C7.01684 5.51982 6.74268 5.40625 6.45677 5.40625C6.1709 5.40625 5.89674 5.51982 5.69458 5.72197C5.49247 5.92413 5.37891 6.19829 5.37891 6.48416C5.37891 6.77002 5.49247 7.04418 5.69458 7.24634L9.95384 11.5056L5.69458 15.7649C5.49247 15.967 5.37891 16.2412 5.37891 16.527C5.37891 16.8129 5.49247 17.0871 5.69458 17.2892C5.89674 17.4914 6.1709 17.6049 6.45677 17.6049C6.74268 17.6049 7.01684 17.4914 7.21895 17.2892L11.4782 13.03L15.7375 17.2892C15.9396 17.4914 16.2138 17.6049 16.4997 17.6049C16.7856 17.6049 17.0597 17.4914 17.2618 17.2892C17.464 17.0871 17.5776 16.8129 17.5776 16.527C17.5776 16.2412 17.464 15.967 17.2618 15.7649L12.9999 11.5056Z" fill="#979797"/>
</svg>
