<svg width="132" height="48" viewBox="0 0 132 48" fill="none" xmlns="http://www.w3.org/2000/svg">
<path d="M33.9513 15.8743L20 0L6.04865 15.8743L0 38.2179L20 48L40 38.2179L33.9513 15.8743ZM35.2703 36.5745L23.5135 42.3458L31.4216 22.3653L35.2703 36.5745ZM29.3243 16.4596L20 40.1561L10.6162 16.5073L20 5.83198L29.3243 16.4596ZM8.56216 22.426L16.4378 42.3198L4.72973 36.5745L8.56216 22.426Z" fill="black"/>
<path d="M60.29 37V21.13H53.93V16H72.8V21.13H66.23V37H60.29ZM71.288 37L79.658 16H84.458L92.768 37H86.858L83.258 27.25C83.058 26.71 82.878 26.21 82.718 25.75C82.558 25.29 82.408 24.84 82.268 24.4C82.128 23.96 81.988 23.51 81.848 23.05C81.728 22.59 81.618 22.09 81.518 21.55L82.478 21.52C82.358 22.1 82.228 22.62 82.088 23.08C81.968 23.54 81.838 23.98 81.698 24.4C81.558 24.82 81.398 25.26 81.218 25.72C81.058 26.18 80.878 26.69 80.678 27.25L77.078 37H71.288ZM75.368 33.52L77.138 29.32H86.858L88.508 33.52H75.368ZM94.3095 37V16H100.25V31.87H109.4V37H94.3095ZM124.228 37L117.718 27.58L109.378 16H116.548L122.908 25.3L131.398 37H124.228ZM109.228 37L117.238 25.57L122.308 27.94L116.098 37H109.228ZM123.388 27.25L118.348 24.97L124.228 16H131.098L123.388 27.25Z" fill="black"/>
</svg>
