<svg width="17" height="17" viewBox="0 0 17 17" fill="none" xmlns="http://www.w3.org/2000/svg">
<path d="M6.9974 0.622404C7.82726 -0.207457 9.17274 -0.207457 10.0026 0.622404C10.8325 1.45227 10.8325 2.79774 10.0026 3.6276C9.17274 4.45747 7.82726 4.45747 6.9974 3.6276C6.16753 2.79774 6.16753 1.45227 6.9974 0.622404Z" fill="#C4C4C4"/>
<path d="M6.9974 6.99741C7.82726 6.16754 9.17274 6.16754 10.0026 6.99741C10.8325 7.82727 10.8325 9.17274 10.0026 10.0026C9.17274 10.8325 7.82726 10.8325 6.9974 10.0026C6.16753 9.17274 6.16753 7.82727 6.9974 6.99741Z" fill="#C4C4C4"/>
<path d="M6.9974 13.3724C7.82726 12.5425 9.17274 12.5425 10.0026 13.3724C10.8325 14.2023 10.8325 15.5477 10.0026 16.3776C9.17274 17.2075 7.82726 17.2075 6.9974 16.3776C6.16753 15.5477 6.16753 14.2023 6.9974 13.3724Z" fill="#C4C4C4"/>
</svg>
