<svg width="31" height="31" viewBox="0 0 31 31" fill="none" xmlns="http://www.w3.org/2000/svg">
<path fill-rule="evenodd" clip-rule="evenodd" d="M3.9375 14.875C3.9375 20.9156 8.83439 25.8125 14.875 25.8125C20.9156 25.8125 25.8125 20.9156 25.8125 14.875C25.8125 8.83438 20.9156 3.9375 14.875 3.9375C8.83439 3.9375 3.9375 8.83438 3.9375 14.875ZM14.875 27.6875C7.79885 27.6875 2.0625 21.9511 2.0625 14.875C2.0625 7.79885 7.79885 2.0625 14.875 2.0625C21.9511 2.0625 27.6875 7.79885 27.6875 14.875C27.6875 18.0756 26.5139 21.0022 24.5736 23.2478L28.6629 27.3371C29.029 27.7032 29.029 28.2968 28.6629 28.6629C28.2968 29.029 27.7032 29.029 27.3371 28.6629L23.2478 24.5736C21.0022 26.5139 18.0756 27.6875 14.875 27.6875Z" fill="white"/>
</svg>
