<svg width="24" height="25" viewBox="0 0 24 25" fill="none" xmlns="http://www.w3.org/2000/svg">
<path d="M20 5.5V11" stroke="black" stroke-opacity="0.3" stroke-width="1.5" stroke-linecap="round"/>
<path d="M16.75 7.5V6.75H15.25V7.5H16.75ZM8.75 7.5V6.75H7.25V7.5H8.75ZM12 2.5L12.2633 1.79775C12.0936 1.73408 11.9064 1.73408 11.7367 1.79775L12 2.5ZM4 5.5L3.73666 4.79775C3.44393 4.90753 3.25 5.18737 3.25 5.5C3.25 5.81263 3.44393 6.09247 3.73666 6.20225L4 5.5ZM12 8.5L11.7367 9.20225C11.9064 9.26592 12.0936 9.26592 12.2633 9.20225L12 8.5ZM20 5.5L20.2633 6.20225C20.5561 6.09247 20.75 5.81263 20.75 5.5C20.75 5.18737 20.5561 4.90753 20.2633 4.79775L20 5.5ZM12.711 17.5059L12.1778 16.9785V16.9785L12.711 17.5059ZM14.2996 15.8996L14.8328 16.427L14.8328 16.427L14.2996 15.8996ZM15.238 15.6441L15.4496 14.9246L15.238 15.6441ZM9.70045 15.8996L10.2337 15.3722L9.70045 15.8996ZM11.289 17.5059L11.8222 16.9785L11.289 17.5059ZM8.762 15.6441L8.5504 14.9246L8.762 15.6441ZM19.25 22.5C19.25 22.9142 19.5858 23.25 20 23.25C20.4142 23.25 20.75 22.9142 20.75 22.5H19.25ZM3.25 22.5C3.25 22.9142 3.58579 23.25 4 23.25C4.41421 23.25 4.75 22.9142 4.75 22.5H3.25ZM15.25 7.5V9.5H16.75V7.5H15.25ZM8.75 9.5V7.5H7.25V9.5H8.75ZM12 12.75C10.2051 12.75 8.75 11.2949 8.75 9.5H7.25C7.25 12.1234 9.37665 14.25 12 14.25V12.75ZM15.25 9.5C15.25 11.2949 13.7949 12.75 12 12.75V14.25C14.6234 14.25 16.75 12.1234 16.75 9.5H15.25ZM11.7367 1.79775L3.73666 4.79775L4.26334 6.20225L12.2633 3.20225L11.7367 1.79775ZM12.2633 9.20225L20.2633 6.20225L19.7367 4.79775L11.7367 7.79775L12.2633 9.20225ZM11.7367 3.20225L19.7367 6.20225L20.2633 4.79775L12.2633 1.79775L11.7367 3.20225ZM12.2633 7.79775L4.26334 4.79775L3.73666 6.20225L11.7367 9.20225L12.2633 7.79775ZM13.2443 18.0332L14.8328 16.427L13.7663 15.3722L12.1778 16.9785L13.2443 18.0332ZM15.0264 16.3637C17.6994 17.1497 19.25 18.8265 19.25 20.5H20.75C20.75 17.8393 18.3869 15.7884 15.4496 14.9246L15.0264 16.3637ZM9.16718 16.427L10.7557 18.0332L11.8222 16.9785L10.2337 15.3722L9.16718 16.427ZM4.75 20.5C4.75 18.8265 6.30063 17.1497 8.97359 16.3637L8.5504 14.9246C5.61309 15.7884 3.25 17.8393 3.25 20.5H4.75ZM19.25 20.5V22.5H20.75V20.5H19.25ZM3.25 20.5V22.5H4.75V20.5H3.25ZM10.2337 15.3722C9.81027 14.944 9.17106 14.7421 8.5504 14.9246L8.97359 16.3637C9.02255 16.3493 9.09983 16.3589 9.16718 16.427L10.2337 15.3722ZM14.8328 16.427C14.9002 16.3589 14.9774 16.3493 15.0264 16.3637L15.4496 14.9246C14.8289 14.7421 14.1897 14.944 13.7663 15.3722L14.8328 16.427ZM12.1778 16.9785C12.0799 17.0774 11.9201 17.0774 11.8222 16.9785L10.7557 18.0332C11.4407 18.7259 12.5593 18.7259 13.2443 18.0332L12.1778 16.9785Z" fill="black" fill-opacity="0.3"/>
</svg>
